<mxfile host="app.diagrams.net" modified="2021-01-18T03:16:25.286Z" agent="5.0 (Windows NT 10.0; WOW64) AppleWebKit/537.36 (KHTML, like Gecko) Chrome/85.0.4183.102 Safari/537.36" etag="gIApYoy3BH7MN9Aw6jir" version="14.2.4" type="github">
  <diagram id="YMg1hjqPTZ2gVe7zv7V6" name="Page-1">
    <mxGraphModel dx="700" dy="473" grid="1" gridSize="10" guides="1" tooltips="1" connect="1" arrows="1" fold="1" page="1" pageScale="1" pageWidth="827" pageHeight="1169" math="0" shadow="0">
      <root>
        <mxCell id="0" />
        <mxCell id="1" parent="0" />
        <mxCell id="33cMaDg9XoKLb8V7PIvq-1" value="何享健" style="rounded=1;whiteSpace=wrap;html=1;strokeColor=#009999;" vertex="1" parent="1">
          <mxGeometry x="40" y="60" width="120" height="60" as="geometry" />
        </mxCell>
        <mxCell id="33cMaDg9XoKLb8V7PIvq-2" value="浙商银行" style="rounded=1;whiteSpace=wrap;html=1;strokeColor=#009999;fillColor=#E6E6E6;" vertex="1" parent="1">
          <mxGeometry x="40" y="160" width="120" height="60" as="geometry" />
        </mxCell>
        <mxCell id="33cMaDg9XoKLb8V7PIvq-3" value="何剑锋" style="rounded=1;whiteSpace=wrap;html=1;strokeColor=#009999;" vertex="1" parent="1">
          <mxGeometry x="390" y="60" width="120" height="60" as="geometry" />
        </mxCell>
        <mxCell id="33cMaDg9XoKLb8V7PIvq-9" value="" style="endArrow=none;html=1;entryX=0;entryY=0.5;entryDx=0;entryDy=0;exitX=1;exitY=0.5;exitDx=0;exitDy=0;" edge="1" parent="1" source="33cMaDg9XoKLb8V7PIvq-1" target="33cMaDg9XoKLb8V7PIvq-3">
          <mxGeometry width="50" height="50" relative="1" as="geometry">
            <mxPoint x="170" y="130" as="sourcePoint" />
            <mxPoint x="220" y="80" as="targetPoint" />
          </mxGeometry>
        </mxCell>
        <mxCell id="33cMaDg9XoKLb8V7PIvq-10" value="父子" style="text;html=1;strokeColor=none;fillColor=none;align=center;verticalAlign=middle;whiteSpace=wrap;rounded=0;" vertex="1" parent="1">
          <mxGeometry x="260" y="70" width="40" height="20" as="geometry" />
        </mxCell>
      </root>
    </mxGraphModel>
  </diagram>
</mxfile>
